<svg xmlns="http://www.w3.org/2000/svg" viewBox="0 0 64 64">
  <defs><linearGradient id="g" x1="0" y1="0" x2="1" y2="1">
    <stop offset="0" stop-color="#f8ccd9"/><stop offset="1" stop-color="#e57a9a"/>
  </linearGradient></defs>
  <circle cx="32" cy="32" r="30" fill="url(#g)"/>
  <path d="M32 14c4 6 4 10 0 16c-4-6-4-10 0-16zm-12 6c6 2 9 5 10 10c-6-1-9-4-10-10zm24 0c-6 2-9 5-10 10c6-1 9-4 10-10zM22 36c6 0 9 2 10 8c-6-1-9-3-10-8zm20 0c-6 0-9 2-10 8c6-1 9-3 10-8z" fill="#ffffff" opacity=".9"/>
</svg>
