<?xml version="1.0" encoding="UTF-8"?>
<svg xmlns="http://www.w3.org/2000/svg" viewBox="0 0 64 64" width="256" height="256" role="img" aria-label="Sakura Cafe logo - gradient circle blossom">
  <defs>
    <linearGradient id="g" x1="0" y1="0" x2="1" y2="1">
      <stop offset="0" stop-color="#f8ccd9"/>
      <stop offset="1" stop-color="#e57a9a"/>
    </linearGradient>
  </defs>
  <circle cx="32" cy="32" r="30" fill="url(#g)"/>
  <g fill="#ffffff" opacity=".92">
    <path d="M32 14c4 6 4 10 0 16c-4-6-4-10 0-16z"/>
    <path d="M20 20c6 2 9 5 10 10c-6-1-9-4-10-10z"/>
    <path d="M44 20c-6 2-9 5-10 10c6-1 9-4 10-10z"/>
    <path d="M22 36c6 0 9 2 10 8c-6-1-9-3-10-8z"/>
    <path d="M42 36c-6 0-9 2-10 8c6-1 9-3 10-8z"/>
  </g>
</svg>
